
<svg width="32" height="32" viewBox="0 0 32 32" fill="none" xmlns="http://www.w3.org/2000/svg">
<path fill-rule="evenodd" clip-rule="evenodd" d="M21.25 5.2417C21.25 4.77757 21.4344 4.33245 21.7626 4.00426C22.0908 3.67607 22.5359 3.4917 23 3.4917H25.5C25.9641 3.4917 26.4092 3.67607 26.7374 4.00426C27.0656 4.33245 27.25 4.77757 27.25 5.2417V27.775H29.125C29.3571 27.775 29.5796 27.8672 29.7437 28.0313C29.9078 28.1954 30 28.418 30 28.65C30 28.8821 29.9078 29.1047 29.7437 29.2688C29.5796 29.4328 29.3571 29.525 29.125 29.525H2.875C2.64294 29.525 2.42038 29.4328 2.25628 29.2688C2.09219 29.1047 2 28.8821 2 28.65C2 28.418 2.09219 28.1954 2.25628 28.0313C2.42038 27.8672 2.64294 27.775 2.875 27.775H5.75V14.2584C5.75 13.7942 5.93437 13.3491 6.26256 13.0209C6.59075 12.6927 7.03587 12.5084 7.5 12.5084H10C10.4641 12.5084 10.9092 12.6927 11.2374 13.0209C11.5656 13.3491 11.75 13.7942 11.75 14.2584V27.775H13.5V11.125C13.5 10.6609 13.6844 10.2158 14.0126 9.8876C14.3408 9.55941 14.7859 9.37503 15.25 9.37503H17.75C18.2141 9.37503 18.6592 9.55941 18.9874 9.8876C19.3156 10.2158 19.5 10.6609 19.5 11.125V27.775H21.25V5.2417ZM23 27.775H25.5V5.2417H23V27.775ZM17.75 27.775V11.125H15.25V27.775H17.75ZM10 27.775V14.2584H7.5V27.775H10Z" fill="#495057"/>
</svg>
