<svg width="100" height="100" viewBox="0 0 100 100" fill="none" xmlns="http://www.w3.org/2000/svg">
<path fill-rule="evenodd" clip-rule="evenodd" d="M68.75 12.5C68.75 10.8424 69.4085 9.25268 70.5806 8.08058C71.7527 6.90848 73.3424 6.25 75 6.25H87.5C89.1576 6.25 90.7473 6.90848 91.9194 8.08058C93.0915 9.25268 93.75 10.8424 93.75 12.5V87.5H96.875C97.7038 87.5 98.4987 87.8292 99.0847 88.4153C99.6708 89.0013 100 89.7962 100 90.625C100 91.4538 99.6708 92.2487 99.0847 92.8347C98.4987 93.4208 97.7038 93.75 96.875 93.75H3.125C2.2962 93.75 1.50134 93.4208 0.915291 92.8347C0.32924 92.2487 0 91.4538 0 90.625C0 89.7962 0.32924 89.0013 0.915291 88.4153C1.50134 87.8292 2.2962 87.5 3.125 87.5H6.25V68.75C6.25 67.0924 6.90848 65.5027 8.08058 64.3306C9.25268 63.1585 10.8424 62.5 12.5 62.5H25C26.6576 62.5 28.2473 63.1585 29.4194 64.3306C30.5915 65.5027 31.25 67.0924 31.25 68.75V87.5H37.5V43.75C37.5 42.0924 38.1585 40.5027 39.3306 39.3306C40.5027 38.1585 42.0924 37.5 43.75 37.5H56.25C57.9076 37.5 59.4973 38.1585 60.6694 39.3306C61.8415 40.5027 62.5 42.0924 62.5 43.75V87.5H68.75V12.5ZM75 87.5H87.5V12.5H75V87.5ZM56.25 87.5V43.75H43.75V87.5H56.25ZM25 87.5V68.75H12.5V87.5H25Z" fill="#050505"/>
</svg>
