<svg width="100" height="100" viewBox="0 0 100 100" fill="none" xmlns="http://www.w3.org/2000/svg">
<g clip-path="url(#clip0_140_166)">
<path fill-rule="evenodd" clip-rule="evenodd" d="M90.625 18.75H9.375C8.5462 18.75 7.75134 19.0792 7.16529 19.6653C6.57924 20.2513 6.25 21.0462 6.25 21.875V78.125C6.25 78.9538 6.57924 79.7487 7.16529 80.3347C7.75134 80.9208 8.5462 81.25 9.375 81.25H90.625C91.4538 81.25 92.2487 80.9208 92.8347 80.3347C93.4208 79.7487 93.75 78.9538 93.75 78.125V21.875C93.75 21.0462 93.4208 20.2513 92.8347 19.6653C92.2487 19.0792 91.4538 18.75 90.625 18.75ZM9.375 12.5C6.8886 12.5 4.50403 13.4877 2.74587 15.2459C0.98772 17.004 0 19.3886 0 21.875L0 78.125C0 80.6114 0.98772 82.996 2.74587 84.7541C4.50403 86.5123 6.8886 87.5 9.375 87.5H90.625C93.1114 87.5 95.496 86.5123 97.2541 84.7541C99.0123 82.996 100 80.6114 100 78.125V21.875C100 19.3886 99.0123 17.004 97.2541 15.2459C95.496 13.4877 93.1114 12.5 90.625 12.5H9.375Z" fill="#050505"/>
<path fill-rule="evenodd" clip-rule="evenodd" d="M31.25 50C31.25 49.1712 31.5792 48.3763 32.1653 47.7903C32.7513 47.2042 33.5462 46.875 34.375 46.875H78.125C78.9538 46.875 79.7487 47.2042 80.3347 47.7903C80.9208 48.3763 81.25 49.1712 81.25 50C81.25 50.8288 80.9208 51.6237 80.3347 52.2097C79.7487 52.7958 78.9538 53.125 78.125 53.125H34.375C33.5462 53.125 32.7513 52.7958 32.1653 52.2097C31.5792 51.6237 31.25 50.8288 31.25 50ZM31.25 34.375C31.25 33.5462 31.5792 32.7513 32.1653 32.1653C32.7513 31.5792 33.5462 31.25 34.375 31.25H78.125C78.9538 31.25 79.7487 31.5792 80.3347 32.1653C80.9208 32.7513 81.25 33.5462 81.25 34.375C81.25 35.2038 80.9208 35.9987 80.3347 36.5847C79.7487 37.1708 78.9538 37.5 78.125 37.5H34.375C33.5462 37.5 32.7513 37.1708 32.1653 36.5847C31.5792 35.9987 31.25 35.2038 31.25 34.375ZM31.25 65.625C31.25 64.7962 31.5792 64.0013 32.1653 63.4153C32.7513 62.8292 33.5462 62.5 34.375 62.5H78.125C78.9538 62.5 79.7487 62.8292 80.3347 63.4153C80.9208 64.0013 81.25 64.7962 81.25 65.625C81.25 66.4538 80.9208 67.2487 80.3347 67.8347C79.7487 68.4208 78.9538 68.75 78.125 68.75H34.375C33.5462 68.75 32.7513 68.4208 32.1653 67.8347C31.5792 67.2487 31.25 66.4538 31.25 65.625Z" fill="#050505"/>
<path d="M21.875 37.5C23.6009 37.5 25 36.1009 25 34.375C25 32.6491 23.6009 31.25 21.875 31.25C20.1491 31.25 18.75 32.6491 18.75 34.375C18.75 36.1009 20.1491 37.5 21.875 37.5Z" fill="#050505"/>
<path d="M21.875 53.125C23.6009 53.125 25 51.7259 25 50C25 48.2741 23.6009 46.875 21.875 46.875C20.1491 46.875 18.75 48.2741 18.75 50C18.75 51.7259 20.1491 53.125 21.875 53.125Z" fill="#050505"/>
<path d="M21.875 68.75C23.6009 68.75 25 67.3509 25 65.625C25 63.8991 23.6009 62.5 21.875 62.5C20.1491 62.5 18.75 63.8991 18.75 65.625C18.75 67.3509 20.1491 68.75 21.875 68.75Z" fill="#050505"/>
</g>
<defs>
<clipPath id="clip0_140_166">
<rect width="100" height="100" fill="white"/>
</clipPath>
</defs>
</svg>
