<svg width="100" height="100" viewBox="0 0 100 100" fill="none" xmlns="http://www.w3.org/2000/svg">
<path d="M25 0H59.375V6.25H25C23.3424 6.25 21.7527 6.90848 20.5806 8.08058C19.4085 9.25268 18.75 10.8424 18.75 12.5V87.5C18.75 89.1576 19.4085 90.7473 20.5806 91.9194C21.7527 93.0915 23.3424 93.75 25 93.75H75C76.6576 93.75 78.2473 93.0915 79.4194 91.9194C80.5915 90.7473 81.25 89.1576 81.25 87.5V28.125H87.5V87.5C87.5 90.8152 86.183 93.9946 83.8388 96.3388C81.4946 98.683 78.3152 100 75 100H25C21.6848 100 18.5054 98.683 16.1612 96.3388C13.817 93.9946 12.5 90.8152 12.5 87.5V12.5C12.5 9.18479 13.817 6.00537 16.1612 3.66117C18.5054 1.31696 21.6848 0 25 0V0Z" fill="#050505"/>
<path d="M59.375 18.75V0L87.5 28.125H68.75C66.2636 28.125 63.879 27.1373 62.1209 25.3791C60.3627 23.621 59.375 21.2364 59.375 18.75V18.75Z" fill="#050505"/>
<path fill-rule="evenodd" clip-rule="evenodd" d="M54.0431 41.5372C54.3334 41.2462 54.6782 41.0153 55.0579 40.8578C55.4375 40.7002 55.8445 40.6191 56.2556 40.6191C56.6666 40.6191 57.0736 40.7002 57.4533 40.8578C57.833 41.0153 58.1778 41.2462 58.4681 41.5372L70.9681 54.0372C71.2591 54.3275 71.49 54.6724 71.6475 55.052C71.8051 55.4317 71.8862 55.8387 71.8862 56.2497C71.8862 56.6608 71.8051 57.0678 71.6475 57.4474C71.49 57.8271 71.2591 58.1719 70.9681 58.4622L58.4681 70.9622C57.8813 71.549 57.0854 71.8787 56.2556 71.8787C55.4257 71.8787 54.6299 71.549 54.0431 70.9622C53.4563 70.3754 53.1266 69.5796 53.1266 68.7497C53.1266 67.9199 53.4563 67.124 54.0431 66.5372L64.3368 56.2497L54.0431 45.9622C53.7521 45.6719 53.5212 45.3271 53.3636 44.9474C53.2061 44.5678 53.125 44.1608 53.125 43.7497C53.125 43.3387 53.2061 42.9317 53.3636 42.552C53.5212 42.1724 53.7521 41.8275 54.0431 41.5372ZM45.9681 41.5372C45.6778 41.2462 45.333 41.0153 44.9533 40.8578C44.5736 40.7002 44.1666 40.6191 43.7556 40.6191C43.3445 40.6191 42.9375 40.7002 42.5579 40.8578C42.1782 41.0153 41.8334 41.2462 41.5431 41.5372L29.0431 54.0372C28.7521 54.3275 28.5212 54.6724 28.3636 55.052C28.2061 55.4317 28.125 55.8387 28.125 56.2497C28.125 56.6608 28.2061 57.0678 28.3636 57.4474C28.5212 57.8271 28.7521 58.1719 29.0431 58.4622L41.5431 70.9622C42.1299 71.549 42.9257 71.8787 43.7556 71.8787C44.5854 71.8787 45.3813 71.549 45.9681 70.9622C46.5549 70.3754 46.8845 69.5796 46.8845 68.7497C46.8845 67.9199 46.5549 67.124 45.9681 66.5372L35.6743 56.2497L45.9681 45.9622C46.2591 45.6719 46.49 45.3271 46.6475 44.9474C46.8051 44.5678 46.8862 44.1608 46.8862 43.7497C46.8862 43.3387 46.8051 42.9317 46.6475 42.552C46.49 42.1724 46.2591 41.8275 45.9681 41.5372V41.5372Z" fill="#050505"/>
</svg>
