<svg width="100" height="100" viewBox="0 0 100 100" fill="none" xmlns="http://www.w3.org/2000/svg">
<g clip-path="url(#clip0_140_336)">
<path fill-rule="evenodd" clip-rule="evenodd" d="M87.5 18.75H12.5C10.8424 18.75 9.25268 19.4085 8.08058 20.5806C6.90848 21.7527 6.25 23.3424 6.25 25V31.25C6.25 32.9076 6.90848 34.4973 8.08058 35.6694C9.25268 36.8415 10.8424 37.5 12.5 37.5H87.5C89.1576 37.5 90.7473 36.8415 91.9194 35.6694C93.0915 34.4973 93.75 32.9076 93.75 31.25V25C93.75 23.3424 93.0915 21.7527 91.9194 20.5806C90.7473 19.4085 89.1576 18.75 87.5 18.75ZM12.5 12.5C9.18479 12.5 6.00537 13.817 3.66117 16.1612C1.31696 18.5054 0 21.6848 0 25L0 31.25C0 34.5652 1.31696 37.7446 3.66117 40.0888C6.00537 42.433 9.18479 43.75 12.5 43.75H87.5C90.8152 43.75 93.9946 42.433 96.3388 40.0888C98.683 37.7446 100 34.5652 100 31.25V25C100 21.6848 98.683 18.5054 96.3388 16.1612C93.9946 13.817 90.8152 12.5 87.5 12.5H12.5Z" fill="#050505"/>
<path d="M31.25 28.125C31.25 28.9538 30.9208 29.7487 30.3347 30.3347C29.7487 30.9208 28.9538 31.25 28.125 31.25C27.2962 31.25 26.5013 30.9208 25.9153 30.3347C25.3292 29.7487 25 28.9538 25 28.125C25 27.2962 25.3292 26.5013 25.9153 25.9153C26.5013 25.3292 27.2962 25 28.125 25C28.9538 25 29.7487 25.3292 30.3347 25.9153C30.9208 26.5013 31.25 27.2962 31.25 28.125ZM18.75 28.125C18.75 28.9538 18.4208 29.7487 17.8347 30.3347C17.2487 30.9208 16.4538 31.25 15.625 31.25C14.7962 31.25 14.0013 30.9208 13.4153 30.3347C12.8292 29.7487 12.5 28.9538 12.5 28.125C12.5 27.2962 12.8292 26.5013 13.4153 25.9153C14.0013 25.3292 14.7962 25 15.625 25C16.4538 25 17.2487 25.3292 17.8347 25.9153C18.4208 26.5013 18.75 27.2962 18.75 28.125Z" fill="#050505"/>
<path fill-rule="evenodd" clip-rule="evenodd" d="M46.875 62.5V43.75H53.125V62.5C55.6114 62.5 57.996 63.4877 59.7541 65.2459C61.5123 67.004 62.5 69.3886 62.5 71.875H96.875C97.7038 71.875 98.4987 72.2042 99.0847 72.7903C99.6708 73.3763 100 74.1712 100 75C100 75.8288 99.6708 76.6237 99.0847 77.2097C98.4987 77.7958 97.7038 78.125 96.875 78.125H62.5C62.5 80.6114 61.5123 82.996 59.7541 84.7541C57.996 86.5123 55.6114 87.5 53.125 87.5H46.875C44.3886 87.5 42.004 86.5123 40.2459 84.7541C38.4877 82.996 37.5 80.6114 37.5 78.125H3.125C2.2962 78.125 1.50134 77.7958 0.915291 77.2097C0.32924 76.6237 0 75.8288 0 75C0 74.1712 0.32924 73.3763 0.915291 72.7903C1.50134 72.2042 2.2962 71.875 3.125 71.875H37.5C37.5 69.3886 38.4877 67.004 40.2459 65.2459C42.004 63.4877 44.3886 62.5 46.875 62.5ZM46.875 68.75C46.0462 68.75 45.2513 69.0792 44.6653 69.6653C44.0792 70.2513 43.75 71.0462 43.75 71.875V78.125C43.75 78.9538 44.0792 79.7487 44.6653 80.3347C45.2513 80.9208 46.0462 81.25 46.875 81.25H53.125C53.9538 81.25 54.7487 80.9208 55.3347 80.3347C55.9208 79.7487 56.25 78.9538 56.25 78.125V71.875C56.25 71.0462 55.9208 70.2513 55.3347 69.6653C54.7487 69.0792 53.9538 68.75 53.125 68.75H46.875Z" fill="#050505"/>
</g>
<defs>
<clipPath id="clip0_140_336">
<rect width="100" height="100" fill="white"/>
</clipPath>
</defs>
</svg>
