<svg width="32" height="32" viewBox="0 0 32 32" fill="none" xmlns="http://www.w3.org/2000/svg">
<path d="M4 12.6667H28M4 19.3333H28M16 12.6667V26M6.66667 26H25.3333C26.0406 26 26.7189 25.6488 27.219 25.0237C27.719 24.3986 28 23.5507 28 22.6667V9.33333C28 8.44928 27.719 7.60143 27.219 6.97631C26.7189 6.35119 26.0406 6 25.3333 6H6.66667C5.95942 6 5.28115 6.35119 4.78105 6.97631C4.28095 7.60143 4 8.44928 4 9.33333V22.6667C4 23.5507 4.28095 24.3986 4.78105 25.0237C5.28115 25.6488 5.95942 26 6.66667 26Z" stroke="#495057" stroke-width="2" stroke-linecap="round" stroke-linejoin="round"/>
</svg>
