<svg width="32" height="32" viewBox="0 0 32 32" fill="none" xmlns="http://www.w3.org/2000/svg">
<path d="M24 20.0002C25.0609 20.0002 26.0783 20.4216 26.8284 21.1717C27.5786 21.9219 28 22.9393 28 24.0002C28 25.061 27.5786 26.0784 26.8284 26.8286C26.0783 27.5787 25.0609 28.0002 24 28.0002C22.9391 28.0002 21.9217 27.5787 21.1716 26.8286C20.4214 26.0784 20 25.061 20 24.0002C20 22.9393 20.4214 21.9219 21.1716 21.1717C21.9217 20.4216 22.9391 20.0002 24 20.0002ZM24 20.0002V10.0002C24 9.29292 23.719 8.61464 23.219 8.11454C22.7189 7.61445 22.0406 7.3335 21.3333 7.3335H18" stroke="#495057" stroke-width="2" stroke-linecap="round" stroke-linejoin="round"/>
<path d="M19.3333 10.6667L16 7.33333L19.3333 4M8 12C6.93913 12 5.92172 11.5786 5.17157 10.8284C4.42143 10.0783 4 9.06087 4 8C4 6.93913 4.42143 5.92172 5.17157 5.17157C5.92172 4.42143 6.93913 4 8 4C9.06087 4 10.0783 4.42143 10.8284 5.17157C11.5786 5.92172 12 6.93913 12 8C12 9.06087 11.5786 10.0783 10.8284 10.8284C10.0783 11.5786 9.06087 12 8 12ZM8 12V22C8 22.7072 8.28095 23.3855 8.78105 23.8856C9.28115 24.3857 9.95942 24.6667 10.6667 24.6667H14" stroke="#495057" stroke-width="2" stroke-linecap="round" stroke-linejoin="round"/>
<path d="M12.666 21.3335L15.9993 24.6668L12.666 28.0002" stroke="#495057" stroke-width="2" stroke-linecap="round" stroke-linejoin="round"/>
</svg>
