<svg width="32" height="32" viewBox="0 0 32 32" fill="none" xmlns="http://www.w3.org/2000/svg">
<g clip-path="url(#clip0_395_3059)">
<path fill-rule="evenodd" clip-rule="evenodd" d="M27.25 6.625H4.75C4.25272 6.625 3.77581 6.82254 3.42417 7.17417C3.07254 7.52581 2.875 8.00272 2.875 8.5V10.375C2.875 10.8723 3.07254 11.3492 3.42417 11.7008C3.77581 12.0525 4.25272 12.25 4.75 12.25H27.25C27.7473 12.25 28.2242 12.0525 28.5758 11.7008C28.9275 11.3492 29.125 10.8723 29.125 10.375V8.5C29.125 8.00272 28.9275 7.52581 28.5758 7.17417C28.2242 6.82254 27.7473 6.625 27.25 6.625ZM4.75 4.75C3.75544 4.75 2.80161 5.14509 2.09835 5.84835C1.39509 6.55161 1 7.50544 1 8.5L1 10.375C1 11.3696 1.39509 12.3234 2.09835 13.0267C2.80161 13.7299 3.75544 14.125 4.75 14.125H27.25C28.2446 14.125 29.1984 13.7299 29.9016 13.0267C30.6049 12.3234 31 11.3696 31 10.375V8.5C31 7.50544 30.6049 6.55161 29.9016 5.84835C29.1984 5.14509 28.2446 4.75 27.25 4.75H4.75Z" fill="#495057"/>
<path d="M10.375 9.4375C10.375 9.68614 10.2762 9.9246 10.1004 10.1004C9.9246 10.2762 9.68614 10.375 9.4375 10.375C9.18886 10.375 8.9504 10.2762 8.77459 10.1004C8.59877 9.9246 8.5 9.68614 8.5 9.4375C8.5 9.18886 8.59877 8.9504 8.77459 8.77459C8.9504 8.59877 9.18886 8.5 9.4375 8.5C9.68614 8.5 9.9246 8.59877 10.1004 8.77459C10.2762 8.9504 10.375 9.18886 10.375 9.4375ZM6.625 9.4375C6.625 9.68614 6.52623 9.9246 6.35041 10.1004C6.1746 10.2762 5.93614 10.375 5.6875 10.375C5.43886 10.375 5.2004 10.2762 5.02459 10.1004C4.84877 9.9246 4.75 9.68614 4.75 9.4375C4.75 9.18886 4.84877 8.9504 5.02459 8.77459C5.2004 8.59877 5.43886 8.5 5.6875 8.5C5.93614 8.5 6.1746 8.59877 6.35041 8.77459C6.52623 8.9504 6.625 9.18886 6.625 9.4375Z" fill="#495057"/>
<path fill-rule="evenodd" clip-rule="evenodd" d="M15.0625 19.75V14.125H16.9375V19.75C17.6834 19.75 18.3988 20.0463 18.9262 20.5738C19.4537 21.1012 19.75 21.8166 19.75 22.5625H30.0625C30.3111 22.5625 30.5496 22.6613 30.7254 22.8371C30.9012 23.0129 31 23.2514 31 23.5C31 23.7486 30.9012 23.9871 30.7254 24.1629C30.5496 24.3387 30.3111 24.4375 30.0625 24.4375H19.75C19.75 25.1834 19.4537 25.8988 18.9262 26.4262C18.3988 26.9537 17.6834 27.25 16.9375 27.25H15.0625C14.3166 27.25 13.6012 26.9537 13.0738 26.4262C12.5463 25.8988 12.25 25.1834 12.25 24.4375H1.9375C1.68886 24.4375 1.4504 24.3387 1.27459 24.1629C1.09877 23.9871 1 23.7486 1 23.5C1 23.2514 1.09877 23.0129 1.27459 22.8371C1.4504 22.6613 1.68886 22.5625 1.9375 22.5625H12.25C12.25 21.8166 12.5463 21.1012 13.0738 20.5738C13.6012 20.0463 14.3166 19.75 15.0625 19.75ZM15.0625 21.625C14.8139 21.625 14.5754 21.7238 14.3996 21.8996C14.2238 22.0754 14.125 22.3139 14.125 22.5625V24.4375C14.125 24.6861 14.2238 24.9246 14.3996 25.1004C14.5754 25.2762 14.8139 25.375 15.0625 25.375H16.9375C17.1861 25.375 17.4246 25.2762 17.6004 25.1004C17.7762 24.9246 17.875 24.6861 17.875 24.4375V22.5625C17.875 22.3139 17.7762 22.0754 17.6004 21.8996C17.4246 21.7238 17.1861 21.625 16.9375 21.625H15.0625Z" fill="#495057"/>
</g>
<defs>
<clipPath id="clip0_395_3059">
<rect width="30" height="30" fill="white" transform="translate(1 1)"/>
</clipPath>
</defs>
</svg>
