<svg width="20" height="20" viewBox="0 0 20 20" fill="none" xmlns="http://www.w3.org/2000/svg">
<path d="M13.4875 16.14L11.47 14.1213C10.6898 14.4002 9.84643 14.4519 9.03802 14.2702C8.22962 14.0886 7.48941 13.6811 6.90352 13.0952C6.31764 12.5093 5.91018 11.7691 5.72854 10.9607C5.5469 10.1523 5.59856 9.30895 5.8775 8.52875L3.3025 5.95375C1.1725 7.8475 0 10 0 10C0 10 3.75 16.875 10 16.875C11.2005 16.8708 12.3874 16.6207 13.4875 16.14ZM6.5125 3.86C7.61257 3.37928 8.79949 3.12913 10 3.125C16.25 3.125 20 10 20 10C20 10 18.8263 12.1512 16.6987 14.0475L14.1213 11.47C14.4002 10.6898 14.4519 9.84643 14.2702 9.03802C14.0886 8.22962 13.6811 7.48941 13.0952 6.90352C12.5093 6.31764 11.7691 5.91018 10.9607 5.72854C10.1523 5.5469 9.30895 5.59856 8.52875 5.8775L6.5125 3.86125V3.86Z" fill="#ADB5BD"/>
<path d="M6.90653 9.55756C6.83777 10.038 6.88183 10.5278 7.03523 10.9882C7.18863 11.4486 7.44714 11.8669 7.79029 12.21C8.13344 12.5532 8.55179 12.8117 9.01219 12.9651C9.47259 13.1185 9.96239 13.1626 10.4428 13.0938L6.90528 9.55756H6.90653ZM13.094 10.4426L9.55778 6.90506C10.0382 6.8363 10.528 6.88037 10.9884 7.03377C11.4488 7.18716 11.8671 7.44568 12.2103 7.78883C12.5534 8.13197 12.8119 8.55032 12.9653 9.01072C13.1187 9.47112 13.1628 9.96092 13.094 10.4413V10.4426Z" fill="#ADB5BD"/>
<path fill-rule="evenodd" clip-rule="evenodd" d="M17.0581 17.9426L2.05811 2.94262L2.94311 2.05762L17.9431 17.0576L17.0581 17.9426Z" fill="#ADB5BD"/>
</svg>
