<svg width="32" height="32" viewBox="0 0 32 32" fill="none" xmlns="http://www.w3.org/2000/svg">
<path fill-rule="evenodd" clip-rule="evenodd" d="M15.292 2.29183C15.3849 2.19871 15.4952 2.12482 15.6167 2.07441C15.7382 2.024 15.8685 1.99805 16 1.99805C16.1315 1.99805 16.2618 2.024 16.3833 2.07441C16.5048 2.12482 16.6151 2.19871 16.708 2.29183L28.708 14.2918C28.8008 14.3849 28.8744 14.4953 28.9245 14.6168C28.9746 14.7383 29.0002 14.8684 29 14.9998V28.9998C29 29.2651 28.8946 29.5194 28.7071 29.7069C28.5196 29.8945 28.2652 29.9998 28 29.9998H19C18.7348 29.9998 18.4804 29.8945 18.2929 29.7069C18.1054 29.5194 18 29.2651 18 28.9998V20.9998H14V28.9998C14 29.2651 13.8946 29.5194 13.7071 29.7069C13.5196 29.8945 13.2652 29.9998 13 29.9998H4C3.73479 29.9998 3.48043 29.8945 3.29289 29.7069C3.10536 29.5194 3 29.2651 3 28.9998V14.9998C2.99977 14.8684 3.02543 14.7383 3.07554 14.6168C3.12564 14.4953 3.1992 14.3849 3.292 14.2918L15.292 2.29183ZM5 15.4138V27.9998H12V19.9998C12 19.7346 12.1054 19.4803 12.2929 19.2927C12.4804 19.1052 12.7348 18.9998 13 18.9998H19C19.2652 18.9998 19.5196 19.1052 19.7071 19.2927C19.8946 19.4803 20 19.7346 20 19.9998V27.9998H27V15.4138L16 4.41383L5 15.4138Z" fill="#495057"/>
</svg>
