<svg width="40" height="40" viewBox="0 0 40 40" fill="none" xmlns="http://www.w3.org/2000/svg">
<rect x="40" y="40" width="40" height="40" rx="4" transform="rotate(-180 40 40)" fill="white"/>
<path fill-rule="evenodd" clip-rule="evenodd" d="M23.3541 26.3541C23.3076 26.4006 23.2525 26.4376 23.1917 26.4628C23.131 26.488 23.0659 26.501 23.0001 26.501C22.9343 26.501 22.8692 26.488 22.8084 26.4628C22.7477 26.4376 22.6925 26.4006 22.6461 26.3541L16.6461 20.3541C16.5995 20.3076 16.5626 20.2525 16.5374 20.1917C16.5122 20.131 16.4992 20.0659 16.4992 20.0001C16.4992 19.9343 16.5122 19.8692 16.5374 19.8085C16.5626 19.7477 16.5995 19.6925 16.6461 19.6461L22.6461 13.6461C22.74 13.5522 22.8673 13.4995 23.0001 13.4995C23.1329 13.4995 23.2602 13.5522 23.3541 13.6461C23.448 13.74 23.5007 13.8673 23.5007 14.0001C23.5007 14.1329 23.448 14.2602 23.3541 14.3541L17.7071 20.0001L23.3541 25.6461C23.4006 25.6925 23.4376 25.7477 23.4628 25.8084C23.488 25.8692 23.501 25.9343 23.501 26.0001C23.501 26.0659 23.488 26.131 23.4628 26.1917C23.4376 26.2525 23.4006 26.3076 23.3541 26.3541Z" fill="#ADB5BD"/>
</svg>
