<svg width="40" height="40" viewBox="0 0 40 40" fill="none" xmlns="http://www.w3.org/2000/svg">
<rect x="40" y="40" width="40" height="40" rx="4" transform="rotate(-180 40 40)" fill="white"/>
<path fill-rule="evenodd" clip-rule="evenodd" d="M25.3541 26.3541C25.3076 26.4006 25.2525 26.4376 25.1917 26.4628C25.131 26.488 25.0659 26.501 25.0001 26.501C24.9343 26.501 24.8692 26.488 24.8084 26.4628C24.7477 26.4376 24.6925 26.4006 24.6461 26.3541L18.6461 20.3541C18.5995 20.3076 18.5626 20.2525 18.5374 20.1917C18.5122 20.131 18.4992 20.0659 18.4992 20.0001C18.4992 19.9343 18.5122 19.8692 18.5374 19.8085C18.5626 19.7477 18.5995 19.6925 18.6461 19.6461L24.6461 13.6461C24.74 13.5522 24.8673 13.4995 25.0001 13.4995C25.1329 13.4995 25.2602 13.5522 25.3541 13.6461C25.448 13.74 25.5007 13.8673 25.5007 14.0001C25.5007 14.1329 25.448 14.2602 25.3541 14.3541L19.7071 20.0001L25.3541 25.6461C25.4006 25.6925 25.4376 25.7477 25.4628 25.8084C25.488 25.8692 25.501 25.9343 25.501 26.0001C25.501 26.0659 25.488 26.131 25.4628 26.1917C25.4376 26.2525 25.4006 26.3076 25.3541 26.3541Z" fill="#ADB5BD"/>
<path fill-rule="evenodd" clip-rule="evenodd" d="M21.3541 26.3541C21.3076 26.4006 21.2525 26.4376 21.1917 26.4628C21.131 26.488 21.0659 26.501 21.0001 26.501C20.9343 26.501 20.8692 26.488 20.8084 26.4628C20.7477 26.4376 20.6925 26.4006 20.6461 26.3541L14.6461 20.3541C14.5995 20.3076 14.5626 20.2525 14.5374 20.1917C14.5122 20.131 14.4992 20.0659 14.4992 20.0001C14.4992 19.9343 14.5122 19.8692 14.5374 19.8085C14.5626 19.7477 14.5995 19.6925 14.6461 19.6461L20.6461 13.6461C20.74 13.5522 20.8673 13.4995 21.0001 13.4995C21.1329 13.4995 21.2602 13.5522 21.3541 13.6461C21.448 13.74 21.5007 13.8673 21.5007 14.0001C21.5007 14.1329 21.448 14.2602 21.3541 14.3541L15.7071 20.0001L21.3541 25.6461C21.4006 25.6925 21.4376 25.7477 21.4628 25.8084C21.488 25.8692 21.501 25.9343 21.501 26.0001C21.501 26.0659 21.488 26.131 21.4628 26.1917C21.4376 26.2525 21.4006 26.3076 21.3541 26.3541Z" fill="#ADB5BD"/>
</svg>
