<svg width="20" height="20" viewBox="0 0 20 20" fill="none" xmlns="http://www.w3.org/2000/svg">
<path fill-rule="evenodd" clip-rule="evenodd" d="M3.75 17.5C3.75 17.5 2.5 17.5 2.5 16.25C2.5 15 3.75 11.25 10 11.25C16.25 11.25 17.5 15 17.5 16.25C17.5 17.5 16.25 17.5 16.25 17.5H3.75ZM10 10C10.9946 10 11.9484 9.60491 12.6517 8.90165C13.3549 8.19839 13.75 7.24456 13.75 6.25C13.75 5.25544 13.3549 4.30161 12.6517 3.59835C11.9484 2.89509 10.9946 2.5 10 2.5C9.00544 2.5 8.05161 2.89509 7.34835 3.59835C6.64509 4.30161 6.25 5.25544 6.25 6.25C6.25 7.24456 6.64509 8.19839 7.34835 8.90165C8.05161 9.60491 9.00544 10 10 10Z" fill="#050505"/>
</svg>
