<svg width="40" height="40" viewBox="0 0 40 40" fill="none" xmlns="http://www.w3.org/2000/svg">
<rect width="40" height="40" rx="4" fill="white"/>
<path fill-rule="evenodd" clip-rule="evenodd" d="M16.6459 13.6459C16.6924 13.5994 16.7475 13.5624 16.8083 13.5372C16.869 13.512 16.9341 13.499 16.9999 13.499C17.0657 13.499 17.1308 13.512 17.1916 13.5372C17.2523 13.5624 17.3075 13.5994 17.3539 13.6459L23.3539 19.6459C23.4005 19.6924 23.4374 19.7475 23.4626 19.8083C23.4878 19.869 23.5008 19.9341 23.5008 19.9999C23.5008 20.0657 23.4878 20.1308 23.4626 20.1915C23.4374 20.2523 23.4005 20.3075 23.3539 20.3539L17.3539 26.3539C17.26 26.4478 17.1327 26.5005 16.9999 26.5005C16.8671 26.5005 16.7398 26.4478 16.6459 26.3539C16.552 26.26 16.4993 26.1327 16.4993 25.9999C16.4993 25.8671 16.552 25.7398 16.6459 25.6459L22.2929 19.9999L16.6459 14.3539C16.5994 14.3075 16.5624 14.2523 16.5372 14.1916C16.512 14.1308 16.499 14.0657 16.499 13.9999C16.499 13.9341 16.512 13.869 16.5372 13.8083C16.5624 13.7475 16.5994 13.6924 16.6459 13.6459Z" fill="#ADB5BD"/>
</svg>
