<svg width="40" height="40" viewBox="0 0 40 40" fill="none" xmlns="http://www.w3.org/2000/svg">
<rect width="40" height="40" rx="4" fill="white"/>
<path fill-rule="evenodd" clip-rule="evenodd" d="M14.6459 13.6459C14.6924 13.5994 14.7475 13.5624 14.8083 13.5372C14.869 13.512 14.9341 13.499 14.9999 13.499C15.0657 13.499 15.1308 13.512 15.1916 13.5372C15.2523 13.5624 15.3075 13.5994 15.3539 13.6459L21.3539 19.6459C21.4005 19.6924 21.4374 19.7475 21.4626 19.8083C21.4878 19.869 21.5008 19.9341 21.5008 19.9999C21.5008 20.0657 21.4878 20.1308 21.4626 20.1915C21.4374 20.2523 21.4005 20.3075 21.3539 20.3539L15.3539 26.3539C15.26 26.4478 15.1327 26.5005 14.9999 26.5005C14.8671 26.5005 14.7398 26.4478 14.6459 26.3539C14.552 26.26 14.4993 26.1327 14.4993 25.9999C14.4993 25.8671 14.552 25.7398 14.6459 25.6459L20.2929 19.9999L14.6459 14.3539C14.5994 14.3075 14.5624 14.2523 14.5372 14.1916C14.512 14.1308 14.499 14.0657 14.499 13.9999C14.499 13.9341 14.512 13.869 14.5372 13.8083C14.5624 13.7475 14.5994 13.6924 14.6459 13.6459Z" fill="#ADB5BD"/>
<path fill-rule="evenodd" clip-rule="evenodd" d="M18.6459 13.6459C18.6924 13.5994 18.7475 13.5624 18.8083 13.5372C18.869 13.512 18.9341 13.499 18.9999 13.499C19.0657 13.499 19.1308 13.512 19.1916 13.5372C19.2523 13.5624 19.3075 13.5994 19.3539 13.6459L25.3539 19.6459C25.4005 19.6924 25.4374 19.7475 25.4626 19.8083C25.4878 19.869 25.5008 19.9341 25.5008 19.9999C25.5008 20.0657 25.4878 20.1308 25.4626 20.1915C25.4374 20.2523 25.4005 20.3075 25.3539 20.3539L19.3539 26.3539C19.26 26.4478 19.1327 26.5005 18.9999 26.5005C18.8671 26.5005 18.7398 26.4478 18.6459 26.3539C18.552 26.26 18.4993 26.1327 18.4993 25.9999C18.4993 25.8671 18.552 25.7398 18.6459 25.6459L24.2929 19.9999L18.6459 14.3539C18.5994 14.3075 18.5624 14.2523 18.5372 14.1916C18.512 14.1308 18.499 14.0657 18.499 13.9999C18.499 13.9341 18.512 13.869 18.5372 13.8083C18.5624 13.7475 18.5994 13.6924 18.6459 13.6459Z" fill="#ADB5BD"/>
</svg>
