<svg width="20" height="20" viewBox="0 0 20 20" fill="none" xmlns="http://www.w3.org/2000/svg">
<g clip-path="url(#clip0_129_278)">
<path fill-rule="evenodd" clip-rule="evenodd" d="M13.0509 13.0531C13.167 12.9369 13.3049 12.8447 13.4566 12.7818C13.6084 12.7189 13.771 12.6865 13.9353 12.6865C14.0995 12.6865 14.2622 12.7189 14.414 12.7818C14.5657 12.8447 14.7036 12.9369 14.8197 13.0531L19.6322 17.8656C19.8667 18.1 19.9985 18.418 19.9987 18.7496C19.9988 19.0812 19.8672 19.3992 19.6328 19.6338C19.3984 19.8683 19.0804 20.0001 18.7488 20.0003C18.4173 20.0004 18.0992 19.8688 17.8647 19.6344L13.0522 14.8219C12.9359 14.7058 12.8437 14.5679 12.7808 14.4162C12.7179 14.2644 12.6855 14.1018 12.6855 13.9375C12.6855 13.7732 12.7179 13.6106 12.7808 13.4588C12.8437 13.3071 12.9359 13.1692 13.0522 13.0531H13.0509Z" fill="#ADB5BD"/>
<path fill-rule="evenodd" clip-rule="evenodd" d="M8.125 15C9.02784 15 9.92184 14.8222 10.7559 14.4767C11.5901 14.1312 12.348 13.6248 12.9864 12.9864C13.6248 12.348 14.1312 11.5901 14.4767 10.7559C14.8222 9.92184 15 9.02784 15 8.125C15 7.22216 14.8222 6.32817 14.4767 5.49405C14.1312 4.65994 13.6248 3.90204 12.9864 3.26364C12.348 2.62524 11.5901 2.11883 10.7559 1.77333C9.92184 1.42783 9.02784 1.25 8.125 1.25C6.30164 1.25 4.55295 1.97433 3.26364 3.26364C1.97433 4.55295 1.25 6.30164 1.25 8.125C1.25 9.94836 1.97433 11.697 3.26364 12.9864C4.55295 14.2757 6.30164 15 8.125 15ZM16.25 8.125C16.25 10.2799 15.394 12.3465 13.8702 13.8702C12.3465 15.394 10.2799 16.25 8.125 16.25C5.97012 16.25 3.90349 15.394 2.37976 13.8702C0.856024 12.3465 0 10.2799 0 8.125C0 5.97012 0.856024 3.90349 2.37976 2.37976C3.90349 0.856024 5.97012 0 8.125 0C10.2799 0 12.3465 0.856024 13.8702 2.37976C15.394 3.90349 16.25 5.97012 16.25 8.125Z" fill="#ADB5BD"/>
</g>
<defs>
<clipPath id="clip0_129_278">
<rect width="20" height="20" fill="white"/>
</clipPath>
</defs>
</svg>
