<svg width="16" height="17" viewBox="0 0 16 17" fill="none" xmlns="http://www.w3.org/2000/svg">
<path fill-rule="evenodd" clip-rule="evenodd" d="M1.64604 5.14592C1.69249 5.09935 1.74766 5.06241 1.80841 5.0372C1.86915 5.012 1.93427 4.99902 2.00004 4.99902C2.06581 4.99902 2.13093 5.012 2.19167 5.0372C2.25242 5.06241 2.30759 5.09935 2.35404 5.14592L8.00004 10.7929L13.646 5.14592C13.6925 5.09943 13.7477 5.06255 13.8085 5.03739C13.8692 5.01223 13.9343 4.99929 14 4.99929C14.0658 4.99929 14.1309 5.01223 14.1916 5.03739C14.2524 5.06255 14.3076 5.09943 14.354 5.14592C14.4005 5.1924 14.4374 5.24759 14.4626 5.30833C14.4877 5.36907 14.5007 5.43417 14.5007 5.49992C14.5007 5.56566 14.4877 5.63076 14.4626 5.6915C14.4374 5.75224 14.4005 5.80743 14.354 5.85392L8.35404 11.8539C8.30759 11.9005 8.25242 11.9374 8.19167 11.9626C8.13093 11.9878 8.06581 12.0008 8.00004 12.0008C7.93427 12.0008 7.86915 11.9878 7.80841 11.9626C7.74766 11.9374 7.69248 11.9005 7.64604 11.8539L1.64604 5.85392C1.59948 5.80747 1.56253 5.7523 1.53733 5.69155C1.51212 5.63081 1.49915 5.56568 1.49915 5.49992C1.49915 5.43415 1.51212 5.36903 1.53733 5.30828C1.56253 5.24754 1.59948 5.19236 1.64604 5.14592Z" fill="black"/>
</svg>
