<svg width="36" height="36" viewBox="0 0 36 36" fill="none" xmlns="http://www.w3.org/2000/svg">
<path d="M9 0H21.375V2.25H9C8.40326 2.25 7.83097 2.48705 7.40901 2.90901C6.98705 3.33097 6.75 3.90326 6.75 4.5V31.5C6.75 32.0967 6.98705 32.669 7.40901 33.091C7.83097 33.5129 8.40326 33.75 9 33.75H27C27.5967 33.75 28.169 33.5129 28.591 33.091C29.0129 32.669 29.25 32.0967 29.25 31.5V10.125H31.5V31.5C31.5 32.6935 31.0259 33.8381 30.182 34.682C29.3381 35.5259 28.1935 36 27 36H9C7.80653 36 6.66193 35.5259 5.81802 34.682C4.97411 33.8381 4.5 32.6935 4.5 31.5V4.5C4.5 3.30653 4.97411 2.16193 5.81802 1.31802C6.66193 0.474106 7.80653 0 9 0V0Z" fill="#495057"/>
<path d="M21.375 6.75V0L31.5 10.125H24.75C23.8549 10.125 22.9964 9.76942 22.3635 9.13649C21.7306 8.50355 21.375 7.64511 21.375 6.75Z" fill="#495057"/>
<path fill-rule="evenodd" clip-rule="evenodd" d="M19.4555 14.9536C19.56 14.8488 19.6842 14.7657 19.8208 14.709C19.9575 14.6522 20.104 14.623 20.252 14.623C20.4 14.623 20.5465 14.6522 20.6832 14.709C20.8199 14.7657 20.944 14.8488 21.0485 14.9536L25.5485 19.4536C25.6533 19.5581 25.7364 19.6822 25.7931 19.8189C25.8498 19.9556 25.879 20.1021 25.879 20.2501C25.879 20.398 25.8498 20.5446 25.7931 20.6812C25.7364 20.8179 25.6533 20.9421 25.5485 21.0466L21.0485 25.5466C20.8373 25.7578 20.5508 25.8765 20.252 25.8765C19.9533 25.8765 19.6668 25.7578 19.4555 25.5466C19.2443 25.3353 19.1256 25.0488 19.1256 24.7501C19.1256 24.4513 19.2443 24.1648 19.4555 23.9536L23.1613 20.2501L19.4555 16.5466C19.3507 16.4421 19.2676 16.3179 19.2109 16.1812C19.1542 16.0446 19.125 15.898 19.125 15.7501C19.125 15.6021 19.1542 15.4556 19.2109 15.3189C19.2676 15.1822 19.3507 15.0581 19.4555 14.9536ZM16.5485 14.9536C16.444 14.8488 16.3199 14.7657 16.1832 14.709C16.0465 14.6522 15.9 14.623 15.752 14.623C15.604 14.623 15.4575 14.6522 15.3208 14.709C15.1842 14.7657 15.06 14.8488 14.9555 14.9536L10.4555 19.4536C10.3507 19.5581 10.2676 19.6822 10.2109 19.8189C10.1542 19.9556 10.125 20.1021 10.125 20.2501C10.125 20.398 10.1542 20.5446 10.2109 20.6812C10.2676 20.8179 10.3507 20.9421 10.4555 21.0466L14.9555 25.5466C15.1668 25.7578 15.4533 25.8765 15.752 25.8765C16.0508 25.8765 16.3373 25.7578 16.5485 25.5466C16.7598 25.3353 16.8784 25.0488 16.8784 24.7501C16.8784 24.4513 16.7598 24.1648 16.5485 23.9536L12.8428 20.2501L16.5485 16.5466C16.6533 16.4421 16.7364 16.3179 16.7931 16.1812C16.8498 16.0446 16.879 15.898 16.879 15.7501C16.879 15.6021 16.8498 15.4556 16.7931 15.3189C16.7364 15.1822 16.6533 15.0581 16.5485 14.9536Z" fill="#495057"/>
</svg>
