<svg width="78" height="78" viewBox="0 0 78 78" fill="none" xmlns="http://www.w3.org/2000/svg">
<path d="M29.25 45.5L13 29.25L29.25 13" stroke="black" stroke-width="6" stroke-linecap="round" stroke-linejoin="round"/>
<path d="M13 29.25H47.125C49.4724 29.25 51.7968 29.7124 53.9655 30.6107C56.1342 31.509 58.1047 32.8256 59.7645 34.4855C61.4244 36.1453 62.741 38.1158 63.6393 40.2845C64.5376 42.4532 65 44.7776 65 47.125C65 49.4724 64.5376 51.7968 63.6393 53.9655C62.741 56.1342 61.4244 58.1047 59.7645 59.7645C58.1047 61.4244 56.1342 62.741 53.9655 63.6393C51.7968 64.5376 49.4724 65 47.125 65H35.75" stroke="black" stroke-width="6" stroke-linecap="round" stroke-linejoin="round"/>
</svg>
