<svg width="110" height="110" viewBox="0 0 110 110" fill="none" xmlns="http://www.w3.org/2000/svg">
<g clip-path="url(#clip0_144_3739)">
<path fill-rule="evenodd" clip-rule="evenodd" d="M54.7113 13.8595C54.5537 13.9538 54.4249 14.0893 54.3391 14.2514L7.07663 94.462C6.95889 94.6503 6.89533 94.8672 6.8929 95.0891C6.89047 95.311 6.94926 95.5293 7.06284 95.7201C7.17312 95.9264 7.31787 96.0639 7.43504 96.1326C7.53843 96.2014 7.66939 96.2495 7.88995 96.2495H102.408C102.568 96.2552 102.726 96.2146 102.863 96.1326C103.022 96.0293 103.153 95.8874 103.242 95.7201C103.355 95.5287 103.412 95.3101 103.408 95.0882C103.405 94.8663 103.34 94.6496 103.221 94.462L55.9657 14.2514C55.8799 14.0893 55.7511 13.9538 55.5935 13.8595C55.4584 13.7856 55.3065 13.7477 55.1524 13.7495C54.9983 13.7477 54.8464 13.7856 54.7113 13.8595ZM61.9071 10.7657C61.2248 9.58024 60.241 8.5953 59.055 7.91036C57.869 7.22542 56.5228 6.86475 55.1524 6.86475C53.7819 6.86475 52.4358 7.22542 51.2498 7.91036C50.0638 8.5953 49.08 9.58024 48.3977 10.7657L1.13522 90.9764C-2.01469 96.3251 1.76245 103.124 7.88995 103.124H102.408C108.535 103.124 112.319 96.3182 109.163 90.9764L61.9071 10.7657Z" fill="#DC3545"/>
<path d="M48.2603 82.5007C48.2603 81.5978 48.4385 80.7038 48.7849 79.8697C49.1313 79.0356 49.639 78.2777 50.279 77.6393C50.9191 77.0009 51.6789 76.4945 52.5152 76.149C53.3514 75.8035 54.2477 75.6257 55.1528 75.6257C56.058 75.6257 56.9543 75.8035 57.7905 76.149C58.6268 76.4945 59.3866 77.0009 60.0266 77.6393C60.6667 78.2777 61.1744 79.0356 61.5208 79.8697C61.8671 80.7038 62.0454 81.5978 62.0454 82.5007C62.0454 84.324 61.3192 86.0727 60.0266 87.362C58.734 88.6514 56.9809 89.3757 55.1528 89.3757C53.3248 89.3757 51.5717 88.6514 50.279 87.362C48.9864 86.0727 48.2603 84.324 48.2603 82.5007ZM48.9357 41.2163C48.8439 40.349 48.936 39.4721 49.2059 38.6425C49.4758 37.8129 49.9176 37.0492 50.5025 36.401C51.0875 35.7527 51.8025 35.2343 52.6013 34.8795C53.4 34.5247 54.2647 34.3413 55.1391 34.3413C56.0134 34.3413 56.8781 34.5247 57.6768 34.8795C58.4756 35.2343 59.1906 35.7527 59.7756 36.401C60.3605 37.0492 60.8023 37.8129 61.0722 38.6425C61.3421 39.4721 61.4342 40.349 61.3424 41.2163L58.93 65.3269C58.8489 66.2741 58.4144 67.1565 57.7124 67.7994C57.0105 68.4424 56.0921 68.7992 55.1391 68.7992C54.186 68.7992 53.2677 68.4424 52.5657 67.7994C51.8637 67.1565 51.4292 66.2741 51.3481 65.3269L48.9357 41.2163Z" fill="#DC3545"/>
</g>
<defs>
<clipPath id="clip0_144_3739">
<rect width="110" height="110" fill="white"/>
</clipPath>
</defs>
</svg>
